<svg version="1.1" id="Layer_1" xmlns="http://www.w3.org/2000/svg" xmlns:xlink="http://www.w3.org/1999/xlink" x="0px" y="0px"
	 width="100%" viewBox="0 0 1024 1024" enable-background="new 0 0 1024 1024" xml:space="preserve">
<path fill="#000000" opacity="1.000000" stroke="none" 
	d="
M244.999725,699.292908 
	C211.729385,690.369080 179.576813,679.519714 150.167847,662.099243 
	C138.507202,655.192078 127.345772,647.053040 120.874863,634.314636 
	C111.803833,616.457764 116.005630,603.672424 129.014923,589.566467 
	C132.880142,585.375488 137.386032,581.929199 142.601532,579.564209 
	C144.889221,578.526855 145.530014,577.024353 145.756195,574.560791 
	C146.431061,567.210388 144.586227,561.167297 138.447311,556.596985 
	C128.952301,549.528076 126.610397,539.321106 126.740471,528.276001 
	C126.830421,520.638184 127.389526,513.006714 127.663536,505.369690 
	C127.739067,503.264465 128.517349,501.467102 129.654434,499.809418 
	C135.194946,491.732208 141.874832,484.992859 150.907898,480.701813 
	C165.495010,473.772461 180.725815,468.479126 195.765457,462.702057 
	C197.603058,461.996216 198.643906,461.234131 198.630371,459.273987 
	C198.616776,457.303131 199.058838,455.150818 196.838898,453.958801 
	C195.819916,453.411652 194.698364,453.059387 193.646332,452.569366 
	C188.916656,450.366302 185.039627,447.710327 185.223892,441.527130 
	C185.429337,434.633942 187.574768,429.674713 194.439407,426.595612 
	C225.725540,412.562408 258.375275,403.239929 292.078522,397.359039 
	C293.227386,397.158569 294.371704,396.932098 295.519135,396.723236 
	C298.282043,396.220306 298.666565,394.291046 298.673370,391.887451 
	C298.680786,389.271637 297.309967,388.578400 295.007355,388.196167 
	C284.932983,386.523743 274.678406,388.153046 264.614655,386.416046 
	C262.006927,385.965942 259.364227,385.721344 256.741638,385.353729 
	C253.005463,384.830109 249.966766,383.539154 249.672882,379.081848 
	C249.369400,374.479126 251.166290,371.174927 255.752533,370.095001 
	C265.283600,367.850739 274.831085,365.638428 284.444031,363.788147 
	C299.758911,360.840332 315.119751,358.124268 330.484955,355.446777 
	C349.601776,352.115601 368.795258,349.200928 387.859528,345.597961 
	C409.702484,341.469849 431.780396,339.031982 453.770325,336.022949 
	C465.249115,334.452209 476.567230,330.992279 488.326996,331.875946 
	C510.565002,333.546936 532.890503,333.574646 555.106262,335.012970 
	C571.088074,336.047699 587.121094,337.890533 603.064575,340.259552 
	C628.864868,344.093201 654.382751,349.263702 679.929382,354.378876 
	C683.666809,355.127197 687.545837,355.138000 691.325195,355.714325 
	C697.265381,356.620148 699.580811,359.590668 700.125610,366.490295 
	C700.541870,371.763153 697.358398,374.040253 692.881531,375.021179 
	C687.374451,376.227844 681.839722,377.357574 676.268433,378.200073 
	C673.801025,378.573242 672.223022,378.982422 672.282776,381.986176 
	C672.349182,385.321838 674.279114,385.731293 676.891052,385.703461 
	C681.388123,385.655548 685.888245,385.791382 690.383545,385.690704 
	C704.537842,385.373749 718.557678,387.225281 732.629822,387.998993 
	C741.857239,388.506378 750.392700,391.339264 759.340515,392.536560 
	C768.418518,393.751282 777.085144,396.837036 785.735596,399.784424 
	C794.110291,402.637817 801.395508,407.217072 806.342896,414.693604 
	C813.140808,424.966370 811.695129,433.223724 801.931763,440.780853 
	C797.689087,444.064758 794.156555,447.855042 791.155884,452.295532 
	C788.876709,455.668427 789.623169,457.551727 793.387268,458.266296 
	C813.610229,462.105255 830.424805,472.599243 846.186646,485.163574 
	C853.310974,490.842590 856.424194,498.837616 857.170715,507.395721 
	C858.345520,520.862793 855.756226,534.242554 854.931946,547.669006 
	C854.240601,558.930542 850.039307,568.162231 842.231262,576.061523 
	C839.876038,578.444214 839.429382,581.817078 839.456482,584.931519 
	C839.544861,595.098999 837.559998,605.203430 838.388367,615.360962 
	C839.687683,631.293701 831.875916,642.538025 819.665100,651.069824 
	C803.428467,662.414490 786.194702,671.756775 767.468445,678.839844 
	C751.802124,684.765442 736.227661,690.854126 720.169434,695.598694 
	C709.685486,698.696350 699.115356,701.548706 688.321411,703.434692 
	C675.094116,705.745911 661.870361,708.078430 648.636169,710.349609 
	C621.782959,714.958130 594.527710,716.592285 567.658142,720.753296 
	C546.765869,723.988708 525.934082,723.741760 505.016907,724.541748 
	C482.392059,725.407043 459.812347,724.433167 437.228363,724.089966 
	C416.984344,723.782410 396.798981,721.314087 376.596161,720.004333 
	C355.154877,718.614319 333.915894,715.908569 312.697296,713.074036 
	C298.427704,711.167786 284.186981,708.503540 270.186737,704.818298 
	C262.015228,702.667358 253.679749,701.139404 244.999725,699.292908 
M655.287231,668.293274 
	C645.513245,668.982117 635.747314,669.833923 625.963318,670.322388 
	C610.359924,671.101440 594.747070,671.723755 579.132019,672.216125 
	C575.422302,672.333130 574.154053,673.775879 574.296814,677.371704 
	C574.500793,682.508240 574.397522,687.659790 574.328369,692.803589 
	C574.271545,697.028381 572.039856,699.220947 567.806580,699.374146 
	C565.147705,699.470398 562.300781,700.021118 559.960571,698.585938 
	C548.755310,691.713806 536.518433,688.739319 523.506409,688.379761 
	C519.340210,688.264648 517.574890,685.717346 517.682983,681.811035 
	C518.028625,669.318176 517.103638,656.864624 516.688843,644.394409 
	C516.458435,637.469971 516.051575,636.712463 509.231903,637.411255 
	C492.936035,639.080994 476.634705,638.103882 460.335327,637.833496 
	C458.506042,637.803162 457.095825,638.308044 455.717133,639.264709 
	C440.432861,649.869934 425.114014,660.426086 409.891144,671.118835 
	C400.569794,677.666138 391.556183,683.000488 378.899139,681.713745 
	C357.748749,679.563538 336.598022,677.742615 315.564880,674.448120 
	C293.731201,671.028259 272.022919,667.052307 250.619125,661.609314 
	C226.934357,655.586182 203.718597,648.240295 181.764511,637.129822 
	C171.497574,631.934082 162.380905,625.673584 154.937805,616.941345 
	C152.076584,613.584595 150.196075,609.924500 149.496231,605.422241 
	C148.827682,601.121216 148.418030,596.588196 145.989090,592.720459 
	C131.279282,598.857483 121.748871,617.253723 134.264801,633.015076 
	C140.713776,641.136230 148.942535,647.443726 157.860809,652.813660 
	C173.324280,662.124634 190.171661,668.362366 206.923019,674.724670 
	C231.068573,683.895386 256.228851,689.440918 281.455292,694.714600 
	C305.543030,699.750366 329.851624,703.133179 354.292603,705.896362 
	C364.244690,707.021545 374.217194,707.040588 384.123596,707.980225 
	C399.469238,709.435791 414.730835,711.580505 430.200043,711.693787 
	C449.014801,711.831543 467.825653,712.449402 486.640411,712.667542 
	C493.115540,712.742676 499.605774,712.376953 506.074280,711.974243 
	C518.702942,711.188049 531.346741,711.986145 543.999451,711.077698 
	C557.281189,710.124023 570.399170,708.075806 583.589966,706.541992 
	C598.584229,704.798462 613.453796,701.960205 628.534546,700.984924 
	C636.890686,700.444458 644.841675,697.906372 653.045593,696.726868 
	C671.123169,694.127808 689.098633,691.190430 706.801208,686.481812 
	C725.458313,681.519348 743.698181,675.441772 761.678711,668.476074 
	C778.499634,661.959534 794.847534,654.517822 809.266541,643.513855 
	C814.903809,639.211731 821.086365,635.025879 823.815063,628.104370 
	C828.909302,615.182434 825.725586,601.671997 826.969971,587.846436 
	C820.835144,590.255432 818.376038,593.958313 818.355164,599.363770 
	C818.332581,605.195679 818.196350,611.029602 818.308655,616.858765 
	C818.369202,620.002075 817.255005,622.343506 814.668457,624.036255 
	C809.934082,627.134521 805.270691,630.306641 800.774719,633.773254 
	C796.326660,637.202820 792.088806,635.337585 790.593933,629.875671 
	C790.106079,628.093018 790.020447,626.328491 790.101929,624.459900 
	C790.311035,619.664612 790.302917,614.854187 790.197632,610.053772 
	C790.156982,608.200562 789.721558,606.190308 787.069458,606.553345 
	C784.838989,606.858704 782.568787,607.475464 782.650818,610.327820 
	C782.827881,616.488342 781.705444,622.556763 781.466675,628.702637 
	C780.945557,642.116333 784.263000,641.828674 770.875427,646.448486 
	C769.312073,646.988037 767.866455,647.862671 766.351013,648.548218 
	C760.269409,651.299194 756.201721,648.937134 756.509399,642.395508 
	C756.868835,634.754211 755.909912,627.061340 757.391968,619.467224 
	C757.671387,618.035767 757.555481,616.832947 755.747864,616.446228 
	C752.768311,615.808838 749.684143,618.127319 749.171692,621.206482 
	C747.959656,628.489319 748.458435,635.823303 748.284485,643.139954 
	C748.014648,654.481873 747.860413,654.217896 737.471069,658.232910 
	C725.333618,662.923401 723.424011,658.834045 724.058105,647.553162 
	C724.085754,647.061157 724.328369,646.582642 724.366394,646.089783 
	C724.934387,638.717651 724.239014,631.318909 726.020813,623.322815 
	C711.513672,625.629395 698.299988,628.004944 685.000366,629.710083 
	C679.660156,630.394775 678.415588,633.292114 678.398987,637.687378 
	C678.355713,649.171814 676.887207,660.600525 677.238159,672.111938 
	C677.358032,676.043152 676.562805,680.037415 675.865906,683.945862 
	C675.415955,686.469421 674.340393,688.661377 670.968994,688.476868 
	C667.788269,688.302673 666.246216,686.808655 665.505127,683.771484 
	C664.497253,679.640930 664.778137,675.482483 664.813110,671.338989 
	C664.839111,668.251404 663.579041,667.021667 660.615051,667.425232 
	C659.132690,667.627075 657.664978,667.937256 655.287231,668.293274 
M652.584534,515.221924 
	C649.932312,515.438782 647.281616,515.677734 644.627563,515.868835 
	C627.725586,517.085938 611.013000,520.292419 594.001343,520.454773 
	C584.083130,520.549500 574.139893,521.438904 564.291870,522.151489 
	C551.859253,523.051208 539.409302,524.036194 526.975647,524.145508 
	C501.533752,524.369385 476.081238,523.951355 450.639557,523.728638 
	C435.663208,523.597473 420.705475,523.021484 405.874908,521.820007 
	C386.175354,520.223999 366.423279,519.369934 346.736694,517.503784 
	C332.675812,516.171021 318.539062,515.335449 304.619263,513.035645 
	C285.481506,509.873627 266.762512,504.514130 247.539200,501.637390 
	C235.478134,499.832397 224.288254,494.768402 212.925476,490.719086 
	C207.032043,488.618805 200.207535,485.795471 197.098969,477.507263 
	C195.958359,484.271912 196.639267,489.739532 196.461914,495.176544 
	C196.342484,498.837646 197.831253,501.273560 200.634079,503.095398 
	C206.081512,506.636200 211.528015,510.250031 217.781799,512.242493 
	C231.381851,516.575378 244.938782,521.073364 258.659821,524.990784 
	C292.192413,534.564514 326.758575,538.126404 361.281799,541.475525 
	C385.926147,543.866272 410.674957,545.615173 435.417694,546.450928 
	C468.845337,547.580078 502.283661,548.531677 535.772705,546.935547 
	C557.004150,545.923645 578.284241,545.398071 599.542480,544.836365 
	C617.847961,544.352783 636.132202,543.370972 654.269043,541.379028 
	C682.328918,538.297180 710.033508,532.735413 737.509521,526.171265 
	C753.928772,522.248596 769.674438,516.595825 784.582397,508.582153 
	C791.905212,504.645813 796.362366,498.943878 797.224426,490.647339 
	C797.460510,488.375366 797.841919,485.573639 795.964111,484.074310 
	C794.159485,482.633453 791.885010,484.442139 789.847595,484.934113 
	C789.072937,485.121246 788.414307,485.759308 787.680298,486.149567 
	C782.399597,488.957245 777.088135,491.561493 771.326233,493.433807 
	C756.278687,498.323395 740.800598,501.406067 725.465027,505.090424 
	C711.374878,508.475494 696.850037,508.931213 682.603943,511.320007 
	C672.965942,512.936096 663.443298,515.576538 652.584534,515.221924 
M318.452271,406.422638 
	C297.012024,405.199432 276.683350,411.162567 256.429993,416.717926 
	C236.282959,422.244049 216.088303,428.041046 197.438049,438.685760 
	C200.131348,442.116730 203.161118,442.638184 205.958344,443.608063 
	C212.422958,445.849487 219.209229,446.721039 225.832581,448.286072 
	C243.445160,452.447723 261.230835,455.579376 279.204681,457.774506 
	C294.544403,459.647919 310.044159,459.850952 325.320221,461.926605 
	C348.747681,465.109863 372.308472,466.158447 395.848358,467.501190 
	C411.751556,468.408295 427.710449,468.417389 443.647064,468.633667 
	C455.622345,468.796234 467.583252,468.437897 479.560242,467.823334 
	C489.703766,467.302826 499.856995,466.565979 509.875732,465.346954 
	C530.724854,462.810181 551.572937,461.368958 572.558533,461.654510 
	C573.611450,461.668884 574.909912,462.343689 576.037415,460.201965 
	C567.976318,456.331451 559.977112,452.417694 551.911621,448.645630 
	C547.136902,446.412537 542.524353,444.144958 536.918640,443.799286 
	C523.925415,442.998138 511.018036,444.649963 498.059265,444.373627 
	C480.790680,444.005341 463.495941,443.200165 446.251984,443.773254 
	C425.588593,444.460022 405.008087,443.912201 384.447815,442.232239 
	C378.684937,441.761383 372.789276,441.900482 367.159302,440.205017 
	C364.855927,439.511353 362.823334,438.454010 362.690674,435.546112 
	C362.561646,432.717499 362.994476,430.171448 365.775055,428.730560 
	C367.098175,428.044922 368.483093,427.391235 369.916901,427.019897 
	C386.491577,422.727325 402.918823,417.932800 419.221313,412.704681 
	C420.988312,412.138000 422.821869,411.735443 424.705627,410.008972 
	C422.899078,409.717285 421.772827,409.387115 420.643494,409.376099 
	C409.666107,409.268738 398.704376,409.026062 387.726562,408.521576 
	C367.936554,407.612122 348.106659,407.581512 328.294708,407.126740 
	C325.307281,407.058197 322.326904,406.681671 318.452271,406.422638 
M731.036133,573.773071 
	C720.127319,576.530701 709.392944,579.816711 698.288513,581.997864 
	C675.002869,586.572021 651.784851,591.372131 628.252136,594.616699 
	C614.591614,596.500305 600.928406,598.257080 587.229187,599.830811 
	C574.555603,601.286682 561.958313,603.420166 549.338928,605.331116 
	C539.659546,606.796875 529.945129,608.119812 520.500549,610.810425 
	C515.904297,612.119934 515.969360,615.997925 516.044006,619.656982 
	C516.118347,623.302673 518.722839,623.656616 521.653687,623.680786 
	C537.125122,623.808411 552.591064,623.965210 568.064270,624.404358 
	C583.126648,624.831787 598.265076,624.897766 613.368591,623.968201 
	C627.812805,623.079224 642.295532,622.942200 656.734192,621.750793 
	C667.025452,620.901611 677.154480,618.956726 687.384705,617.778870 
	C710.045593,615.169678 732.214905,610.264832 754.154968,604.185669 
	C770.356018,599.696594 786.161682,594.271606 801.517822,587.232605 
	C814.267883,581.388123 825.938110,574.363831 835.614746,564.281433 
	C841.125916,558.539185 843.409546,551.372131 843.480286,542.922974 
	C837.185852,545.743530 832.843689,549.958252 827.971924,553.369934 
	C812.132690,564.462341 794.292969,571.271301 776.258301,577.596985 
	C755.690491,584.811218 734.461243,589.637085 713.170776,594.133301 
	C709.451782,594.918701 705.528137,594.761963 702.076721,592.452454 
	C700.190125,591.190002 699.613586,589.462769 699.726990,587.302856 
	C699.836304,585.222900 701.315308,584.429443 702.908447,583.924011 
	C706.394226,582.817932 709.879089,581.578613 713.461365,580.928406 
	C737.710999,576.527405 761.422913,570.289307 784.485840,561.486267 
	C804.941772,553.678223 823.639648,543.181885 839.309082,527.715698 
	C846.883484,520.239624 847.393860,505.163116 840.322815,497.299530 
	C831.956848,487.995728 821.414124,481.909821 809.741333,476.878693 
	C810.714050,482.877350 810.372253,488.515259 810.119629,494.126251 
	C809.677673,503.941132 805.596680,512.637756 796.906982,516.793152 
	C787.006836,521.527344 783.961548,528.027649 785.166809,538.382019 
	C786.062805,546.079712 782.500305,552.014648 775.016785,555.433044 
	C760.802551,561.925964 746.579163,568.371765 731.036133,573.773071 
M577.136230,447.274506 
	C580.427979,448.874268 583.774475,450.371429 587.001160,452.093079 
	C596.461914,457.140869 605.887207,460.911957 617.250671,458.909515 
	C626.186279,457.334900 635.518738,458.175415 644.620178,457.343933 
	C661.474365,455.804199 678.289062,453.868958 695.099182,451.843353 
	C720.514343,448.780853 745.831482,445.367340 770.433533,438.110413 
	C777.694641,435.968506 785.247070,434.188019 791.363953,429.091461 
	C797.370850,424.086456 797.101624,419.011841 790.271179,415.009033 
	C788.705383,414.091400 786.988403,413.339874 785.248291,412.826111 
	C772.240051,408.985565 759.439270,404.793213 745.865295,402.600647 
	C722.620300,398.845978 699.316772,397.859009 675.903748,397.416565 
	C674.044006,397.381439 672.866028,398.023804 672.240845,400.015228 
	C670.628418,405.151886 666.529053,407.540344 661.671265,408.921295 
	C654.493469,410.961731 647.155762,412.613739 639.898865,414.026276 
	C612.708069,419.318787 585.326843,423.627319 558.064697,428.567780 
	C555.306396,429.067657 551.556335,427.998108 549.433716,432.061279 
	C558.050903,437.909698 567.261047,442.417969 577.136230,447.274506 
M607.427490,370.652863 
	C628.330750,369.358398 649.393738,369.955383 670.093262,365.308777 
	C660.822937,362.734985 651.604492,359.910828 642.174683,358.529022 
	C627.733154,356.412933 613.506653,353.114532 598.915527,351.719574 
	C582.553040,350.155243 566.236389,348.140320 549.806152,347.314728 
	C538.180481,346.730560 526.557007,345.597198 514.933411,345.609253 
	C501.008850,345.623718 487.112122,342.415802 473.157745,345.339233 
	C467.474304,346.529877 461.732605,347.558960 455.966858,348.220703 
	C427.099091,351.533997 398.439117,356.175232 369.792694,360.999756 
	C351.123993,364.143829 332.376648,366.845276 313.788910,370.455780 
	C304.477570,372.264435 294.955414,373.096008 285.869904,376.265228 
	C289.521851,376.665344 293.144043,376.611542 296.764282,376.673828 
	C327.386688,377.200653 357.966400,375.459503 388.562347,375.012268 
	C417.634735,374.587311 446.734711,376.027588 475.822083,376.670807 
	C482.565155,376.819916 484.249054,378.852173 483.540527,385.663391 
	C483.302551,387.951324 482.581024,390.493683 486.372589,390.667847 
	C491.016052,390.881195 495.644440,391.433075 500.288177,391.626831 
	C515.447021,392.259308 530.558777,390.497406 545.710999,390.636597 
	C548.026184,390.657867 550.283630,390.405640 551.883850,388.434357 
	C550.554260,385.803009 547.836487,386.784912 546.093933,385.634338 
	C542.704773,383.396637 537.955139,381.873962 538.881714,376.627563 
	C539.829956,371.258453 544.827515,371.960541 548.572937,371.778839 
	C567.849304,370.843597 587.139648,370.238556 607.427490,370.652863 
M313.799835,609.591980 
	C331.460724,611.438232 349.125122,613.252441 366.777405,615.177734 
	C368.644531,615.381348 370.338837,615.720581 372.013092,614.533630 
	C381.776611,607.611633 391.558319,600.715027 401.355896,593.841248 
	C402.354584,593.140625 403.438354,592.498413 402.943512,591.113159 
	C402.408600,589.615723 400.949402,589.194885 399.638000,589.519836 
	C393.982971,590.921021 388.377502,589.348755 382.763306,589.445923 
	C353.732269,589.948242 325.137543,586.078430 296.635620,581.170166 
	C280.276123,578.352966 263.785889,576.053406 247.727966,571.857361 
	C231.209885,567.541260 214.904099,562.379822 198.602097,557.279297 
	C183.858978,552.666504 169.182388,547.770630 155.999893,539.411438 
	C150.614273,535.996338 145.544052,532.069397 139.716263,529.142822 
	C138.093674,536.405029 140.646210,541.715271 145.556534,546.458679 
	C155.936447,556.485657 167.715073,564.365906 180.455170,571.103210 
	C204.015457,583.562439 229.115128,591.573242 254.930832,597.461060 
	C274.175171,601.850159 293.585236,605.512756 313.799835,609.591980 
M445.452972,630.813904 
	C447.469452,629.677490 448.706146,628.173157 448.666992,625.640686 
	C448.344879,604.822937 448.948517,584.017029 449.674194,563.216003 
	C449.803986,559.495178 448.318268,558.318787 444.682953,558.287781 
	C438.053558,558.231323 431.395325,559.071716 424.778503,557.580811 
	C422.121002,556.981995 421.401947,559.099854 421.384155,561.340942 
	C421.351166,565.495667 421.363403,569.650635 421.354218,573.805542 
	C421.347992,576.617188 421.512695,579.105591 423.470123,581.683899 
	C426.549561,585.740051 424.433624,594.097656 419.581329,596.565430 
	C415.023315,598.883667 411.636322,602.571411 407.435364,605.215027 
	C403.677765,607.579529 400.053131,609.790466 404.976318,614.443054 
	C405.365387,614.810791 405.246063,615.710571 405.374786,616.360718 
	C406.909607,624.113037 406.330658,631.873230 405.786194,639.683105 
	C405.368317,645.676941 405.703033,651.723267 405.703033,658.338684 
	C410.605133,655.193604 414.692566,652.341431 418.993561,649.859192 
	C428.250824,644.516296 436.574188,637.908630 445.452972,630.813904 
M179.596405,537.847229 
	C184.101013,539.540405 188.637360,541.154724 193.100418,542.951172 
	C196.808670,544.443848 197.911163,542.944641 197.850128,539.395813 
	C197.767303,534.580444 196.943695,529.515259 198.128021,525.000549 
	C200.035446,517.729431 196.560928,513.510437 191.562912,509.806946 
	C186.684326,506.191925 184.851288,501.381470 184.800583,495.594299 
	C184.772903,492.434723 184.762222,489.274353 184.679474,486.116028 
	C184.553253,481.296967 183.261322,480.375885 178.932205,482.018585 
	C174.119156,483.844971 169.217392,485.486664 164.547119,487.629211 
	C156.561325,491.292755 148.346420,494.700531 142.624084,501.887604 
	C137.588669,508.211945 138.310760,513.385132 144.814896,517.980713 
	C155.563126,525.575073 166.999329,531.966248 179.596405,537.847229 
M603.865173,508.603912 
	C607.462097,508.568878 608.693237,506.443451 608.989685,503.166595 
	C609.770630,494.534302 609.616821,485.887146 609.682678,477.239655 
	C609.703064,474.562988 608.878113,473.011993 605.961487,473.405762 
	C598.181641,474.456055 590.357727,474.255615 582.543518,474.236450 
	C579.274536,474.228455 578.250183,475.818787 578.284058,478.905090 
	C578.371887,486.892181 578.243774,494.881500 578.227112,502.869965 
	C578.214355,509.018524 579.494568,510.471558 585.567871,509.464569 
	C591.383057,508.500336 597.173401,508.849579 603.865173,508.603912 
M346.287720,658.153137 
	C313.956085,653.048279 281.624481,647.943481 249.158798,642.817505 
	C248.085022,647.074768 249.008713,649.748169 253.536484,650.718262 
	C262.274689,652.590149 270.908844,654.994507 279.691467,656.603149 
	C301.205841,660.543762 322.728912,664.473999 344.477692,666.983154 
	C346.551270,667.222412 349.406921,668.771484 350.058716,666.071960 
	C350.709045,663.378601 351.132355,659.667786 346.287720,658.153137 
M469.304810,501.453400 
	C469.295441,503.944519 469.310974,506.436066 469.269653,508.926636 
	C469.229431,511.350525 470.247406,512.661011 472.803528,512.644043 
	C478.449860,512.606567 484.096619,512.638428 489.743073,512.614136 
	C492.368958,512.602844 493.677887,511.328705 493.661774,508.610779 
	C493.611511,500.142059 493.623322,491.672943 493.631531,483.203979 
	C493.633545,481.127411 493.022949,479.469238 490.638885,479.493347 
	C484.686371,479.553406 478.724243,478.815948 472.779968,480.083527 
	C470.110229,480.652863 469.224579,481.955475 469.275238,484.525085 
	C469.379944,489.837036 469.313416,495.152435 469.304810,501.453400 
M413.372925,510.781616 
	C417.436066,511.950623 421.600250,511.674042 425.743958,511.616638 
	C428.966461,511.572021 430.570831,510.012817 430.551300,506.654175 
	C430.509979,499.553375 430.501892,492.448303 430.708923,485.351654 
	C430.823639,481.418640 429.170074,480.034302 425.351135,480.191925 
	C420.044708,480.411041 414.716614,480.455383 409.411530,480.238861 
	C405.711517,480.087799 404.280151,481.579987 404.336029,485.158722 
	C404.426758,490.970551 404.334900,496.785156 404.335632,502.598572 
	C404.336609,510.515656 404.358734,510.531494 413.372925,510.781616 
M301.227264,546.348694 
	C294.082184,544.930115 286.915924,543.608154 279.801422,542.050049 
	C276.498779,541.326660 275.204651,542.258179 275.291382,545.701294 
	C275.420898,550.847046 275.411377,556.008667 275.149872,561.147766 
	C274.955872,564.960083 276.452026,566.348999 280.228516,566.800537 
	C287.622375,567.684814 294.951843,569.118896 302.299255,570.376160 
	C307.058960,571.190674 308.934021,569.655884 308.345490,564.767029 
	C307.886871,560.957886 307.336945,557.135803 307.723938,553.348755 
	C308.181793,548.868408 306.179657,546.901733 301.227264,546.348694 
M542.778381,636.384521 
	C539.956360,636.304077 537.119568,636.376587 534.316101,636.104797 
	C530.708679,635.755066 529.124634,636.957703 529.279846,640.810730 
	C529.540833,647.286499 529.224792,653.785828 529.496643,660.260742 
	C530.178406,676.494629 530.256042,676.493774 544.053711,676.046021 
	C544.353271,676.036316 544.645081,675.787598 545.184204,675.537170 
	C545.294373,675.072021 545.654846,674.415222 545.556946,673.835999 
	C543.740356,663.090576 545.131104,652.260620 544.653564,641.483032 
	C544.581543,639.855225 544.959839,638.104797 542.778381,636.384521 
M718.341187,490.896667 
	C718.373230,492.662781 718.503113,494.510376 720.981934,494.032684 
	C725.534302,493.155518 730.069092,492.168030 734.573547,491.071747 
	C736.223938,490.670044 736.592651,489.177032 736.873962,487.585419 
	C737.718994,482.805115 737.649475,477.999420 737.643982,473.181122 
	C737.627625,458.849579 737.654297,458.882568 723.626465,461.384644 
	C720.771362,461.893860 719.241394,463.023254 719.293274,466.251770 
	C719.421021,474.203827 719.479919,482.169800 718.341187,490.896667 
M546.706787,563.317810 
	C546.587952,571.467163 546.451904,579.616333 546.359924,587.765991 
	C546.329163,590.489685 546.219360,593.646057 550.132019,593.405029 
	C553.334839,593.207764 556.683716,593.025269 557.201904,588.203735 
	C558.129578,579.571472 557.001831,570.872803 558.398560,562.274292 
	C558.652649,560.709961 557.586853,559.673462 555.918335,560.024170 
	C552.902100,560.658142 549.596802,560.366089 546.706787,563.317810 
M706.872681,567.747864 
	C710.272400,567.776489 713.324097,566.212402 716.587524,565.632019 
	C718.381165,565.312927 719.317444,564.077637 719.348999,562.543823 
	C719.477722,556.292664 719.402649,550.037415 719.402649,543.647461 
	C715.245728,543.192688 711.926758,544.463684 708.518311,544.883911 
	C705.187439,545.294556 704.001038,547.198059 704.462708,550.442444 
	C704.646423,551.733215 704.067200,553.224854 704.503357,554.370789 
	C706.141479,558.674744 702.616760,563.566467 706.872681,567.747864 
M162.152054,606.197571 
	C163.248550,609.373169 165.036087,611.974304 168.022324,613.725220 
	C169.271820,612.135559 168.688324,610.610718 168.660828,609.185120 
	C168.513840,601.559631 167.792984,593.903870 168.258652,586.319275 
	C168.741165,578.459900 166.924744,575.191101 158.548309,573.091492 
	C157.549240,584.167969 158.791611,594.893738 162.152054,606.197571 
M361.279144,634.551880 
	C360.333557,644.956482 361.890015,655.360474 361.292175,665.768250 
	C361.182098,667.684814 361.511597,669.631592 364.130005,669.469482 
	C366.169342,669.343140 367.577332,668.326172 367.616760,666.042847 
	C367.633942,665.046814 367.664551,664.050720 367.664368,663.054688 
	C367.662476,653.090393 367.693848,643.125916 367.624237,633.162048 
	C367.605652,630.501831 368.599121,626.705322 364.342560,626.688171 
	C359.839783,626.669983 361.634186,630.647461 361.247528,633.145447 
	C361.222626,633.306274 361.259064,633.476501 361.279144,634.551880 
M338.033081,477.580200 
	C335.594025,477.411591 333.154968,477.242981 330.570679,477.064331 
	C329.462952,484.886810 329.402496,492.325043 329.178986,499.751526 
	C329.051849,503.975647 331.747986,505.108307 335.285339,505.215424 
	C338.926880,505.325684 340.132843,503.583435 339.892914,499.937286 
	C339.577667,495.146942 339.975708,490.313995 339.837402,485.505951 
	C339.764221,482.960571 340.977081,480.172150 338.033081,477.580200 
M237.913132,634.732666 
	C239.464294,626.017212 237.993210,617.233887 238.436340,608.482910 
	C238.591949,605.410156 235.903564,604.654480 232.279358,604.802734 
	C233.044571,617.388672 230.709320,629.665649 231.479828,642.049988 
	C231.693390,645.482666 234.757309,646.088074 237.705460,646.511230 
	C239.842102,642.706299 237.327698,639.149353 237.913132,634.732666 
M662.851074,473.267639 
	C660.690063,481.911102 661.836487,490.813995 660.783264,499.542358 
	C660.484375,502.019043 661.724365,502.726074 663.926636,502.904938 
	C667.707336,503.212036 668.999023,501.088806 669.094910,497.831085 
	C669.344116,489.361359 669.532166,480.889618 669.699585,472.417786 
	C669.740479,470.348145 669.655945,468.386963 666.673767,468.326385 
	C663.655457,468.265137 663.019653,469.999939 662.851074,473.267639 
M626.854187,582.742615 
	C631.345154,583.289368 633.747864,582.051514 634.115784,576.797852 
	C634.507751,571.200439 634.456299,565.576477 635.080139,560.010864 
	C635.344604,557.651428 636.006104,555.476196 632.637756,555.478088 
	C629.567139,555.479858 625.823547,554.973816 625.435364,559.529419 
	C624.901855,565.790283 624.658203,572.077271 624.372009,578.356812 
	C624.299072,579.956238 624.000610,581.782654 626.854187,582.742615 
M556.348572,669.320312 
	C556.989807,673.066406 554.690552,676.675659 556.140869,680.590881 
	C556.888184,682.608215 557.183167,684.629089 559.680542,684.492981 
	C562.485657,684.340088 561.718689,681.865356 561.731201,680.233826 
	C561.828796,667.484497 561.849243,654.734314 561.813232,641.984619 
	C561.808533,640.322266 562.599304,637.707581 559.982056,637.576904 
	C557.159424,637.435913 557.500793,640.160583 557.363770,642.048889 
	C556.728027,650.807129 555.978943,659.563660 556.348572,669.320312 
M561.605286,402.566406 
	C558.957336,402.107727 556.361816,402.417175 553.730103,402.876495 
	C545.397949,404.330597 545.222961,404.544647 546.314148,413.264343 
	C546.528381,414.976654 546.796814,416.528778 548.619019,417.300964 
	C550.791504,418.221558 560.529297,416.872650 561.355896,414.956421 
	C562.989502,411.169647 564.530029,407.117279 561.605286,402.566406 
M379.359039,661.940491 
	C379.356415,662.936829 379.342773,663.933350 379.353027,664.929565 
	C379.409668,670.430115 380.300201,671.354858 385.854309,670.567505 
	C391.317780,669.793030 395.119629,666.127563 399.821289,662.257202 
	C393.110138,659.257996 386.768402,659.626770 380.692810,658.757446 
	C379.661774,658.609924 379.440521,660.094177 379.359039,661.940491 
M777.660828,470.338043 
	C777.660828,464.394043 777.660828,458.450043 777.660828,452.284637 
	C774.428650,452.221222 771.016235,452.262299 771.669434,455.909973 
	C772.636719,461.311584 770.432434,466.472076 771.380066,471.716827 
	C771.870972,474.433533 769.358459,479.250061 774.238342,479.213013 
	C779.042053,479.176544 777.337524,474.351013 777.660828,470.338043 
M408.490082,428.011047 
	C406.611115,428.774994 404.257202,428.608917 402.946045,430.584625 
	C404.048920,432.890900 406.002625,432.573456 407.768890,432.638580 
	C411.066315,432.760162 414.333832,432.729736 417.636505,433.366272 
	C424.526550,434.694244 427.602661,430.927338 425.701294,423.391479 
	C419.870270,423.411743 414.891937,427.041504 408.490082,428.011047 
M371.348083,562.689697 
	C371.332733,566.179260 371.307098,569.668884 371.305573,573.158447 
	C371.304504,575.541931 371.183838,578.147644 374.605865,578.126343 
	C377.759277,578.106750 377.609375,575.657776 377.652496,573.455444 
	C377.730316,569.481995 377.735443,565.543213 378.471466,561.569275 
	C379.408447,556.510071 377.662659,555.081909 372.041168,555.463928 
	C370.846252,557.442566 371.503967,559.652588 371.348083,562.689697 
M208.687744,543.476318 
	C208.874664,544.282349 209.101059,545.081604 209.240158,545.895752 
	C209.517212,547.517395 209.447617,549.671448 211.714081,549.556152 
	C214.529617,549.412903 213.664566,546.945312 213.678360,545.278320 
	C213.729355,539.119263 213.659012,532.959167 213.655670,526.799500 
	C213.654404,524.469116 213.360031,522.435059 210.102432,522.646606 
	C209.848251,523.300476 209.607620,523.899170 209.381866,524.503479 
	C207.139282,530.506226 209.061722,536.632996 208.687744,543.476318 
M245.040497,476.836548 
	C244.928986,474.183929 244.718002,471.562103 245.246490,468.885742 
	C245.597107,467.110016 244.707550,465.570770 242.548004,465.504608 
	C240.769653,465.450073 240.369232,466.685944 240.317764,468.161896 
	C240.115173,473.970459 240.562485,479.798370 239.477020,485.584167 
	C239.131165,487.427734 240.225784,488.863190 242.346817,488.806061 
	C244.346619,488.752167 244.639343,487.235840 244.717072,485.635498 
	C244.846024,482.981018 244.988510,480.327209 245.040497,476.836548 
M625.713440,392.355377 
	C625.916687,394.652832 626.110474,396.951172 626.326111,399.247467 
	C626.497681,401.075165 625.587952,403.694611 628.817444,403.576752 
	C632.018799,403.459991 631.890320,400.807343 631.554199,398.764069 
	C630.770569,393.999115 630.547363,389.230347 630.617920,384.425751 
	C630.639038,382.987305 630.379578,381.708679 628.549011,381.681641 
	C626.821533,381.656128 626.465271,382.919952 626.077942,384.268494 
	C625.372559,386.724426 625.913757,389.193268 625.713440,392.355377 
M333.805634,634.603149 
	C332.992859,638.530884 333.386322,642.104370 336.478027,645.464478 
	C340.389374,637.233704 339.459290,626.281921 334.898834,625.091797 
	C333.681152,627.901794 334.680725,630.961731 333.805634,634.603149 
M657.145996,379.952820 
	C653.540955,384.752258 655.848389,390.151520 655.678589,395.284943 
	C655.642029,396.392822 656.971436,396.631500 658.044250,396.474670 
	C659.353027,396.283356 660.317505,395.468140 660.357483,394.220917 
	C660.495422,389.910217 660.545959,385.591187 660.426575,381.280975 
	C660.388306,379.902374 659.160461,379.461334 657.145996,379.952820 
M213.661453,469.320099 
	C213.650391,466.334778 213.647018,463.349396 213.624680,460.364166 
	C213.614975,459.067627 213.139130,458.057983 211.701797,457.932709 
	C210.730453,457.848053 209.879868,458.596252 209.986710,459.360840 
	C210.624832,463.927246 207.923630,468.024109 208.311020,472.563934 
	C208.549377,475.357178 209.638763,477.084381 212.443176,477.756104 
	C214.003021,475.211304 213.551178,472.672241 213.661453,469.320099 
M769.352905,539.870178 
	C769.469910,540.967468 769.023132,542.231873 770.258057,543.003540 
	C774.121460,540.743042 774.986511,535.954346 772.488892,529.404968 
	C767.446045,531.442993 769.865417,535.775330 769.352905,539.870178 
M416.408844,395.643127 
	C417.822327,398.250977 419.844604,398.323883 421.415009,396.179688 
	C422.995056,394.022400 423.789703,390.967346 421.436737,389.077301 
	C419.789856,387.754425 416.866882,387.372925 416.301300,390.953888 
	C416.099579,392.231018 416.261536,393.565613 416.408844,395.643127 
M313.094910,395.433807 
	C315.383911,393.443176 315.415497,391.125427 313.284485,389.267670 
	C311.899109,388.059967 310.534363,389.133820 309.978210,390.804260 
	C309.184998,393.186890 308.687653,395.460663 313.094910,395.433807 
z"/>
<path fill="#000000" opacity="1.000000" stroke="none" 
	d="
M226.915741,363.745972 
	C228.768539,364.000946 229.516129,365.046906 229.167557,366.229645 
	C228.360947,368.966675 228.778625,371.689148 229.083878,374.890717 
	C223.858139,375.629944 218.929794,375.487854 213.915329,374.772003 
	C214.879684,369.537598 221.681030,363.798187 226.915741,363.745972 
z"/>
</svg>